<svg width="53" height="53" viewBox="0 0 53 53" fill="none" xmlns="http://www.w3.org/2000/svg"><g clip-path="url(#a)"><path fill-rule="evenodd" clip-rule="evenodd" d="M26.5 53C41.136 53 53 41.136 53 26.5S41.136 0 26.5 0q-1.823.002-3.581.24v16.95h7.878V7.161a6.446 6.446 0 0 1 6.446 6.446v25.784a6.446 6.446 0 0 1-6.446 6.446V23.635H22.92v15.04a6.446 6.446 0 0 1-6.446-6.445V1.963C6.809 5.916 0 15.413 0 26.5 0 41.136 11.865 53 26.5 53" fill="#fff"/></g><defs><clipPath id="a"><path fill="#fff" d="M0 0h53v53H0z"/></clipPath></defs></svg>